<svg width="165" height="64" viewBox="0 0 165 64" fill="none" xmlns="http://www.w3.org/2000/svg">
<path d="M44.3109 33.8103C43.1665 33.8103 42.4046 34.7383 42.4046 36.5531C42.4046 38.368 43.1665 39.3432 44.3109 39.3432C45.4552 39.3432 46.2187 38.368 46.2187 36.5531C46.2187 34.7383 45.4568 33.8103 44.3109 33.8103ZM44.3109 38.3878C43.8949 38.3878 43.5718 38.0069 43.5718 36.5531C43.5718 35.0994 43.8949 34.7657 44.3109 34.7657C44.7269 34.7657 45.0499 35.0979 45.0499 36.5531C45.0499 38.0084 44.7253 38.3878 44.3109 38.3878Z" fill="#42BB93"/>
<path d="M52.5608 38.2461V39.2427H49.1627V38.2461H50.3269V35.1619H49.3288V34.3954C49.9002 34.2872 50.2781 34.1409 50.6514 33.9109H51.5611V38.2461H52.5608Z" fill="#42BB93"/>
<path d="M32.3886 47.0507V48.0472H28.9905V47.0507H30.1562V43.9665H29.1566V43.2C29.728 43.0918 30.1059 42.9455 30.4792 42.7154H31.389V47.0507H32.387H32.3886Z" fill="#42BB93"/>
<path d="M35.8507 42.6164C34.7048 42.6164 33.9444 43.5444 33.9444 45.3592C33.9444 47.1741 34.7048 48.1493 35.8507 48.1493C36.9966 48.1493 37.7585 47.1741 37.7585 45.3592C37.7585 43.5444 36.9966 42.6164 35.8507 42.6164ZM35.8507 47.1939C35.4347 47.1939 35.1116 46.813 35.1116 45.3592C35.1116 43.9055 35.4362 43.5718 35.8507 43.5718C36.2651 43.5718 36.5897 43.904 36.5897 45.3592C36.5897 46.8145 36.2651 47.1939 35.8507 47.1939Z" fill="#42BB93"/>
<path d="M41.2221 42.6164C40.0762 42.6164 39.3143 43.5444 39.3143 45.3592C39.3143 47.1741 40.0762 48.1493 41.2221 48.1493C42.368 48.1493 43.1299 47.1741 43.1299 45.3592C43.1299 43.5444 42.368 42.6164 41.2221 42.6164ZM41.2221 47.1939C40.8061 47.1939 40.483 46.813 40.483 45.3592C40.483 43.9055 40.8076 43.5718 41.2221 43.5718C41.6366 43.5718 41.9611 43.904 41.9611 45.3592C41.9611 46.8145 41.6366 47.1939 41.2221 47.1939Z" fill="#42BB93"/>
<path d="M46.592 42.6164C45.4461 42.6164 44.6842 43.5444 44.6842 45.3592C44.6842 47.1741 45.4461 48.1493 46.592 48.1493C47.7379 48.1493 48.4983 47.1741 48.4983 45.3592C48.4983 43.5444 47.7379 42.6164 46.592 42.6164ZM46.592 47.1939C46.176 47.1939 45.8529 46.813 45.8529 45.3592C45.8529 43.9055 46.1775 43.5718 46.592 43.5718C47.0065 43.5718 47.331 43.904 47.331 45.3592C47.331 46.8145 47.008 47.1939 46.592 47.1939Z" fill="#42BB93"/>
<path d="M36.2103 51.4209C35.0644 51.4209 34.304 52.3489 34.304 54.1638C34.304 55.9787 35.0644 56.9539 36.2103 56.9539C37.3562 56.9539 38.1181 55.9787 38.1181 54.1638C38.1181 52.3489 37.3562 51.4209 36.2103 51.4209ZM36.2103 56C35.7943 56 35.4712 55.619 35.4712 54.1653C35.4712 52.7116 35.7958 52.3779 36.2103 52.3779C36.6248 52.3779 36.9493 52.7101 36.9493 54.1653C36.9493 55.6206 36.6248 56 36.2103 56Z" fill="#42BB93"/>
<path d="M43.6663 55.8568V56.8533H40.2682V55.8568H41.4339V52.7726H40.4343V52.0061C41.0057 51.8979 41.3836 51.7516 41.7569 51.5215H42.6667V55.8568H43.6648H43.6663Z" fill="#42BB93"/>
<path d="M9.03316 16.0945C7.88725 16.0945 7.12535 17.0225 7.12535 18.8373C7.12535 20.6522 7.88725 21.6274 9.03316 21.6274C10.1791 21.6274 10.941 20.6522 10.941 18.8373C10.941 17.0225 10.1791 16.0945 9.03316 16.0945ZM9.03316 20.672C8.61716 20.672 8.29411 20.291 8.29411 18.8373C8.29411 17.3836 8.61868 17.0499 9.03316 17.0499C9.44763 17.0499 9.77221 17.3821 9.77221 18.8373C9.77221 20.2926 9.44763 20.672 9.03316 20.672Z" fill="#E5A639"/>
<path d="M15.4865 16.0945C14.3421 16.0945 13.5802 17.0225 13.5802 18.8373C13.5802 20.6522 14.3421 21.6274 15.4865 21.6274C16.6309 21.6274 17.3943 20.6522 17.3943 18.8373C17.3943 17.0225 16.6324 16.0945 15.4865 16.0945ZM15.4865 20.672C15.0705 20.672 14.7474 20.291 14.7474 18.8373C14.7474 17.3836 15.0705 17.0499 15.4865 17.0499C15.9025 17.0499 16.2255 17.3821 16.2255 18.8373C16.2255 20.2926 15.901 20.672 15.4865 20.672Z" fill="#E5A639"/>
<path d="M14.5036 7.0461C13.3288 7.0461 12.5486 7.99696 12.5486 9.85753C12.5486 11.7181 13.3288 12.7162 14.5036 12.7162C15.6785 12.7162 16.4587 11.7166 16.4587 9.85753C16.4587 7.99848 15.6785 7.0461 14.5036 7.0461ZM14.5036 11.7379C14.077 11.7379 13.7463 11.3478 13.7463 9.856C13.7463 8.36419 14.0785 8.02286 14.5036 8.02286C14.9288 8.02286 15.261 8.36419 15.261 9.856C15.261 11.3478 14.9288 11.7379 14.5036 11.7379Z" fill="#E5A639"/>
<path d="M21.7158 11.5931V12.6141H18.2324V11.5931H19.4271V8.43124H18.4046V7.64648C18.9897 7.53524 19.3768 7.3859 19.7593 7.14971H20.6918V11.5931H21.7158Z" fill="#E5A639"/>
<path d="M23.3554 9.856C23.3554 7.99695 24.1356 7.04457 25.3105 7.04457C26.4854 7.04457 27.2655 8.00305 27.2655 9.856C27.2655 11.709 26.4854 12.7162 25.3105 12.7162C24.1356 12.7162 23.3554 11.7166 23.3554 9.856ZM26.0678 9.856C26.0678 8.36571 25.7356 8.02286 25.3105 8.02286C24.8854 8.02286 24.5532 8.36419 24.5532 9.856C24.5532 11.3478 24.8854 11.7379 25.3105 11.7379C25.7356 11.7379 26.0678 11.3478 26.0678 9.856Z" fill="#E5A639"/>
<path d="M30.7139 7.0461C29.5391 7.0461 28.7589 7.99696 28.7589 9.85753C28.7589 11.7181 29.5391 12.7162 30.7139 12.7162C31.8888 12.7162 32.669 11.7166 32.669 9.85753C32.669 7.99848 31.8888 7.0461 30.7139 7.0461ZM30.7139 11.7379C30.2872 11.7379 29.9551 11.3478 29.9551 9.856C29.9551 8.36419 30.2872 8.02286 30.7139 8.02286C31.1406 8.02286 31.4712 8.36419 31.4712 9.856C31.4712 11.3478 31.1391 11.7379 30.7139 11.7379Z" fill="#E5A639"/>
<path d="M36.1173 7.0461C34.9425 7.0461 34.1623 7.99696 34.1623 9.85753C34.1623 11.7181 34.9425 12.7162 36.1173 12.7162C37.2922 12.7162 38.0724 11.7166 38.0724 9.85753C38.0724 7.99848 37.2922 7.0461 36.1173 7.0461ZM36.1173 11.7379C35.6907 11.7379 35.36 11.3478 35.36 9.856C35.36 8.36419 35.6922 8.02286 36.1173 8.02286C36.5425 8.02286 36.8762 8.36419 36.8762 9.856C36.8762 11.3478 36.544 11.7379 36.1173 11.7379Z" fill="#E5A639"/>
<path d="M43.3295 11.5931V12.6141H39.8461V11.5931H41.0408V8.43124H40.0183V7.64648C40.605 7.53524 40.9905 7.3859 41.3745 7.14971H42.3071V11.5931H43.3295Z" fill="#E5A639"/>
<path d="M21.9398 16.0945C20.7939 16.0945 20.032 17.0225 20.032 18.8373C20.032 20.6522 20.7939 21.6274 21.9398 21.6274C23.0857 21.6274 23.8476 20.6522 23.8476 18.8373C23.8476 17.0225 23.0857 16.0945 21.9398 16.0945ZM21.9398 20.672C21.5238 20.672 21.2008 20.2911 21.2008 18.8373C21.2008 17.3836 21.5254 17.0499 21.9398 17.0499C22.3543 17.0499 22.6789 17.3821 22.6789 18.8373C22.6789 20.2926 22.3543 20.672 21.9398 20.672Z" fill="#EE3481"/>
<path d="M29.885 20.5288V21.5253H26.4869V20.5288H27.6526V17.4446H26.653V16.6781C27.2244 16.5699 27.6023 16.4236 27.9756 16.1935H28.8854V20.5288H29.885Z" fill="#EE3481"/>
<path d="M35.9223 20.5288V21.5253H32.5242V20.5288H33.6884V17.4446H32.6903V16.6781C33.2618 16.5699 33.6397 16.4236 34.013 16.1935H34.9242V20.5288H35.9223Z" fill="#EE3481"/>
<path d="M40.4663 16.0945C39.3219 16.0945 38.56 17.0225 38.56 18.8373C38.56 20.6522 39.3219 21.6274 40.4663 21.6274C41.6107 21.6274 42.3741 20.6522 42.3741 18.8373C42.3741 17.0225 41.6122 16.0945 40.4663 16.0945ZM40.4663 20.672C40.0503 20.672 39.7273 20.2911 39.7273 18.8373C39.7273 17.3836 40.0503 17.0499 40.4663 17.0499C40.8823 17.0499 41.2054 17.3821 41.2054 18.8373C41.2054 20.2926 40.8808 20.672 40.4663 20.672Z" fill="#EE3481"/>
<path d="M46.9212 16.0945C45.7753 16.0945 45.0134 17.0225 45.0134 18.8373C45.0134 20.6522 45.7753 21.6274 46.9212 21.6274C48.0671 21.6274 48.829 20.6522 48.829 18.8373C48.829 17.0225 48.0671 16.0945 46.9212 16.0945ZM46.9212 20.672C46.5052 20.672 46.1821 20.2911 46.1821 18.8373C46.1821 17.3836 46.5067 17.0499 46.9212 17.0499C47.3357 17.0499 47.6602 17.3821 47.6602 18.8373C47.6602 20.2926 47.3357 20.672 46.9212 20.672Z" fill="#EE3481"/>
<path d="M10.3863 25.0042C9.24042 25.0042 8.48004 25.9322 8.48004 27.7471C8.48004 29.5619 9.24042 30.5372 10.3863 30.5372C11.5322 30.5372 12.2941 29.5619 12.2941 27.7471C12.2941 25.9322 11.5322 25.0042 10.3863 25.0042ZM10.3863 29.5833C9.97032 29.5833 9.64727 29.2023 9.64727 27.7486C9.64727 26.2949 9.97185 25.9612 10.3863 25.9612C10.8008 25.9612 11.1254 26.2933 11.1254 27.7486C11.1254 29.2038 10.8008 29.5833 10.3863 29.5833Z" fill="#EE3481"/>
<path d="M16.5821 25.0042C15.4362 25.0042 14.6743 25.9322 14.6743 27.7471C14.6743 29.5619 15.4362 30.5372 16.5821 30.5372C17.728 30.5372 18.4884 29.5619 18.4884 27.7471C18.4884 25.9322 17.7265 25.0042 16.5821 25.0042ZM16.5821 29.5833C16.1661 29.5833 15.8431 29.2023 15.8431 27.7486C15.8431 26.2949 16.1677 25.9612 16.5821 25.9612C16.9966 25.9612 17.3212 26.2933 17.3212 27.7486C17.3212 29.2038 16.9981 29.5833 16.5821 29.5833Z" fill="#EE3481"/>
<path d="M24.2652 29.44V30.4366H20.8671V29.44H22.0328V26.3558H21.0332V25.5893C21.6046 25.4812 21.9825 25.3349 22.3558 25.1048H23.2656V29.44H24.2637H24.2652Z" fill="#EE3481"/>
<path d="M30.7947 33.8103C29.6488 33.8103 28.8869 34.7383 28.8869 36.5531C28.8869 38.368 29.6488 39.3432 30.7947 39.3432C31.9406 39.3432 32.701 38.368 32.701 36.5531C32.701 34.7383 31.9406 33.8103 30.7947 33.8103ZM30.7947 38.3878C30.3787 38.3878 30.0556 38.0068 30.0556 36.5531C30.0556 35.0994 30.3802 34.7657 30.7947 34.7657C31.2092 34.7657 31.5337 35.0979 31.5337 36.5531C31.5337 38.0084 31.2092 38.3878 30.7947 38.3878Z" fill="#1FB5DD"/>
<path d="M37.5528 33.8103C36.4069 33.8103 35.645 34.7383 35.645 36.5531C35.645 38.368 36.4069 39.3432 37.5528 39.3432C38.6987 39.3432 39.4606 38.368 39.4606 36.5531C39.4606 34.7383 38.6987 33.8103 37.5528 33.8103ZM37.5528 38.3878C37.1368 38.3878 36.8137 38.0068 36.8137 36.5531C36.8137 35.0994 37.1383 34.7657 37.5528 34.7657C37.9673 34.7657 38.2918 35.0979 38.2918 36.5531C38.2918 38.0084 37.9673 38.3878 37.5528 38.3878Z" fill="#1FB5DD"/>
<path d="M28.5516 25.0042C27.4057 25.0042 26.6438 25.9322 26.6438 27.747C26.6438 29.5619 27.4057 30.5371 28.5516 30.5371C29.6975 30.5371 30.4579 29.5619 30.4579 27.747C30.4579 25.9322 29.696 25.0042 28.5516 25.0042ZM28.5516 29.5832C28.1356 29.5832 27.8126 29.2023 27.8126 27.7486C27.8126 26.2949 28.1372 25.9611 28.5516 25.9611C28.9661 25.9611 29.2907 26.2933 29.2907 27.7486C29.2907 29.2038 28.9676 29.5832 28.5516 29.5832Z" fill="#1FB5DD"/>
<path d="M36.2347 29.44V30.4366H32.8366V29.44H34.0023V26.3558H33.0027V25.5893C33.5741 25.4811 33.952 25.3348 34.3253 25.1047H35.2351V29.44H36.2332H36.2347Z" fill="#1FB5DD"/>
<path d="M42.0114 29.44V30.4366H38.6133V29.44H39.7775V26.3558H38.7794V25.5893C39.3509 25.4811 39.7288 25.3348 40.1021 25.1047H41.0118V29.44H42.0114Z" fill="#1FB5DD"/>
<path d="M47.7882 29.44V30.4366H44.3901V29.44H45.5558V26.3558H44.5562V25.5893C45.1276 25.4811 45.5055 25.3348 45.8789 25.1047H46.7886V29.44H47.7867H47.7882Z" fill="#1FB5DD"/>
<path d="M52.0747 25.0042C50.9288 25.0042 50.1669 25.9322 50.1669 27.747C50.1669 29.5619 50.9288 30.5371 52.0747 30.5371C53.2206 30.5371 53.981 29.5619 53.981 27.747C53.981 25.9322 53.2191 25.0042 52.0747 25.0042ZM52.0747 29.5832C51.6587 29.5832 51.3356 29.2023 51.3356 27.7486C51.3356 26.2948 51.6602 25.9611 52.0747 25.9611C52.4892 25.9611 52.8137 26.2933 52.8137 27.7486C52.8137 29.2038 52.4907 29.5832 52.0747 29.5832Z" fill="#1FB5DD"/>
<path d="M59.5292 29.4811V30.5021H56.0457V29.4811H57.2404V26.3192H56.2179V25.5345C56.8031 25.4232 57.1901 25.2739 57.5726 25.0377H58.5052V29.4811H59.5292Z" fill="#1FB5DD"/>
<path d="M68.3413 28.3093V17.6244C68.3413 16.6949 67.7547 16.3032 66.6545 16.157V15.3752H73.4034C78.5874 15.3752 81.9611 17.5025 81.9611 22.8328C81.9611 29.2145 76.9234 30.5112 73.9169 30.5112C72.9143 30.5112 71.0308 30.365 69.7112 30.365C68.6842 30.365 67.7059 30.4381 66.6545 30.56V29.7783C67.7547 29.632 68.3413 29.2404 68.3413 28.3109V28.3093ZM73.4522 29.5314C76.9249 29.5314 78.3421 26.5478 78.3421 22.8312C78.3421 18.7231 76.5821 16.352 73.5497 16.352H73.2068C72.1554 16.352 71.6663 16.7192 71.6663 17.6472V28.2834C71.6663 29.3349 72.5958 29.5299 73.4507 29.5299L73.4522 29.5314Z" fill="#0F2542"/>
<path d="M82.4884 28.0153C82.4884 26.0343 84.1508 24.8366 88.9188 24.1524C89.603 24.0549 89.7996 23.8827 89.7996 23.2472V22.8556C89.7996 21.0956 89.2373 20.1905 87.843 20.1905C85.056 20.1905 87.1832 23.4423 84.64 23.4423C83.6617 23.4423 83.1969 22.8313 83.1969 22.048C83.1969 20.1646 85.8621 19.3097 88.5516 19.3097C91.4377 19.3097 92.7329 20.3612 92.7329 23.7592V28.4297C92.7329 29.2617 93.027 29.6274 93.7356 29.3836V29.824C93.4171 30.4594 92.7086 30.7048 91.9512 30.7048C90.5813 30.7048 89.9459 29.8972 89.8484 29.0179C89.824 28.7238 89.6289 28.6751 89.408 28.9448C88.7238 29.8012 87.4514 30.7048 85.6914 30.7048C84.0289 30.7048 82.4884 29.9231 82.4884 28.0153ZM87.2076 29.0667C88.6994 29.0667 89.7996 27.9177 89.7996 26.3772V25.7417C89.7996 25.1794 89.6046 24.9341 88.8213 25.0088C86.1074 25.2526 85.4964 26.4762 85.4964 27.4301C85.4964 28.3109 86.0099 29.0682 87.2076 29.0682V29.0667Z" fill="#0F2542"/>
<path d="M95.0461 27.3798V21.4141C95.0461 20.6568 94.851 20.509 94.3863 20.509H93.2617V19.8248C94.9973 19.3356 95.9025 18.4792 96.6857 17.1596C96.832 16.9158 96.9798 16.8412 97.2236 16.8412H97.5665C97.8362 16.8412 98.0068 17.0118 98.0068 17.2815L97.9825 18.8709C97.9825 19.3844 98.2019 19.5307 99.3768 19.5307H101.088V20.6553L99.3768 20.5577C98.2034 20.4846 97.9825 20.704 97.9825 21.4629V27.1848C97.9825 28.5791 98.1775 29.4827 99.3768 29.4827C99.8171 29.4827 100.282 29.3608 100.672 29.0423C100.99 29.3852 101.039 29.6777 100.818 29.8743C100.305 30.3391 99.4484 30.6819 98.3238 30.6819C96.3185 30.6819 95.0476 29.6061 95.0476 27.3813L95.0461 27.3798Z" fill="#0F2542"/>
<path d="M101.405 28.0153C101.405 26.0343 103.067 24.8366 107.835 24.1524C108.52 24.0549 108.716 23.8827 108.716 23.2472V22.8556C108.716 21.0956 108.154 20.1905 106.76 20.1905C103.973 20.1905 106.1 23.4423 103.557 23.4423C102.578 23.4423 102.114 22.8313 102.114 22.048C102.114 20.1646 104.779 19.3097 107.468 19.3097C110.354 19.3097 111.65 20.3612 111.65 23.7592V28.4297C111.65 29.2617 111.944 29.6274 112.652 29.3836V29.824C112.334 30.4594 111.625 30.7048 110.868 30.7048C109.498 30.7048 108.862 29.8972 108.765 29.0179C108.741 28.7238 108.546 28.6751 108.325 28.9448C107.64 29.8012 106.368 30.7048 104.608 30.7048C102.946 30.7048 101.405 29.9231 101.405 28.0153ZM106.124 29.0667C107.616 29.0667 108.716 27.9177 108.716 26.3772V25.7417C108.716 25.1794 108.521 24.9341 107.738 25.0088C105.024 25.2526 104.413 26.4762 104.413 27.4301C104.413 28.3109 104.926 29.0682 106.124 29.0682V29.0667Z" fill="#0F2542"/>
<path d="M111.43 20.288V19.5307H117.152V20.288C115.857 20.6552 115.906 21.0697 116.37 22.4396L117.984 27.1345C118.302 28.0884 118.693 28.0884 118.987 27.1345L119.695 24.861C119.989 23.9071 120.136 22.7825 119.866 21.9261C119.572 21.021 119.058 20.5562 118.301 20.288V19.5307H124.023V20.288C122.726 20.6552 122.776 21.0697 123.241 22.4396L124.855 27.1345C125.173 28.0884 125.563 28.0884 125.858 27.1345L126.59 24.8122C127.764 21.0956 127.471 20.6552 125.979 20.288V19.5307H130.747V20.288C129.28 20.6552 128.84 21.12 128.375 22.4396L125.464 30.5585H123.191L120.893 24.128L118.595 30.5585H116.322L113.411 22.4396C112.946 21.1185 112.482 20.6552 111.43 20.288Z" fill="#0F2542"/>
<path d="M132.558 28.2362V22.0739C132.558 20.9493 132.093 20.6553 131.017 20.7528V19.9954L134.417 19.36C135.125 19.2381 135.493 19.5551 135.493 20.2164V28.2362C135.493 29.3608 135.909 29.7036 137.033 29.8012V30.5585H130.993V29.8012C132.142 29.7036 132.558 29.3608 132.558 28.2362ZM133.755 14.2004C134.685 14.2004 135.467 14.9333 135.467 15.9116C135.467 16.8899 134.685 17.6229 133.755 17.6229C132.826 17.6229 132.02 16.8899 132.02 15.9116C132.02 14.9333 132.801 14.2004 133.755 14.2004Z" fill="#0F2542"/>
<path d="M137.374 29.6046C136.763 28.3337 136.69 26.8419 137.618 26.8419C137.961 26.8419 138.181 27.0126 138.302 27.3798C138.889 29.1398 139.916 29.8255 141.359 29.8255C142.997 29.8255 143.462 28.9935 143.462 28.2118C143.462 27.136 142.459 26.7932 140.919 26.3284C138.938 25.7173 137.056 24.7634 137.056 22.6362C137.056 20.509 139.037 19.3113 141.556 19.3113C143.023 19.3113 144.392 19.7273 145.224 20.3383C145.835 21.6092 145.908 23.0766 144.98 23.0766C144.637 23.0766 144.418 22.9059 144.296 22.5387C143.709 20.7787 142.658 20.1417 141.41 20.1417C140.236 20.1417 139.698 20.7284 139.698 21.6092C139.698 22.7093 140.628 23.2473 141.801 23.6145C143.561 24.1524 146.202 24.8122 146.202 27.2579C146.202 29.5314 143.855 30.7063 141.189 30.7063C139.575 30.7063 138.205 30.2415 137.374 29.6061V29.6046Z" fill="#0F2542"/>
<path d="M146.613 25.0575C146.613 21.2191 149.597 19.3113 152.654 19.3113C155.197 19.3113 157.054 20.6324 157.054 22.6362C157.054 24.64 155.319 24.9097 152.603 25.0819L150.574 25.2038C150.133 25.2282 149.938 25.4476 149.938 25.9855C149.938 27.7943 151.822 29.0423 153.876 29.0423C154.83 29.0423 156.003 28.7726 156.859 27.7471L157.446 28.2606C156.981 29.1657 155.246 30.7063 152.507 30.7063C149.451 30.7063 146.615 28.7741 146.615 25.0575H146.613ZM150.6 24.3962L151.87 24.3231C153.827 24.2012 154.316 23.7852 154.316 22.6606C154.316 21.4141 153.729 20.2393 152.262 20.2393C150.427 20.2393 149.792 22.048 149.792 23.4179C149.792 24.1753 150.011 24.4206 150.6 24.3962Z" fill="#0F2542"/>
<path d="M69.1002 46.6012L73.3547 36.9174C73.8438 35.8172 73.9657 34.9608 73.9657 34.496L75.8004 34.3254L81.0575 46.013C81.8895 47.8476 82.1577 48.6294 83.4042 48.9235V49.6808H76.8747V48.8991C78.3421 48.6553 78.3421 48.0183 77.8774 46.9425L77.5589 46.2095C77.2648 45.5254 76.7269 45.4278 76.1158 45.4278H72.1052C71.4454 45.4278 70.9806 45.5497 70.7109 46.1852L70.4427 46.7962C69.9292 47.9939 70.5158 48.6553 72.0808 48.8991V49.6808H66.653V48.8991C68.0229 48.605 68.5364 47.872 69.0987 46.6012H69.1002ZM72.1067 44.3764H76.093C76.3627 44.3764 76.6065 44.157 76.4358 43.7654L74.3086 39.0217C74.1135 38.6057 74.0145 38.6057 73.8438 39.0217L71.741 43.8385C71.5947 44.1814 71.8629 44.3764 72.1082 44.3764H72.1067Z" fill="#0F2542"/>
<path d="M85.5314 47.4073V40.6583C85.5314 39.9497 85.3364 39.8019 84.8716 39.8019H83.5749V39.1177C84.8214 38.9227 85.5314 38.7261 85.5314 37.92C85.5314 34.717 87.4636 33.0057 90.2263 33.0057C91.9375 33.0057 93.3562 33.6655 93.3562 34.9623C93.3562 35.6953 92.8914 36.2575 91.9619 36.2575C90.0297 36.2575 90.6408 33.8362 89.3699 33.8362C88.637 33.8362 88.4648 34.6438 88.4648 36.3794V37.9932C88.4648 38.6286 88.7345 38.7749 89.9078 38.7749H91.6191V39.8751L89.9078 39.7532C88.7345 39.68 88.4648 39.9482 88.4648 40.7071V47.4073C88.4648 48.4831 88.8808 48.8259 90.6408 48.9234V49.6808H83.7943V48.9234C85.1154 48.8259 85.5299 48.4831 85.5299 47.4073H85.5314Z" fill="#0F2542"/>
<path d="M94.0739 47.3585V41.1962C94.0739 40.0716 93.6092 39.7775 92.509 39.8751V39.1177L95.933 38.4823C96.6415 38.3604 97.0088 38.6774 97.0088 39.2396V39.7532C97.0088 40.1935 97.3516 40.2667 97.6686 39.8994C98.2065 39.2884 99.1116 38.3833 100.603 38.3833C102.193 38.3833 103.147 39.4103 103.147 40.6324C103.147 41.6594 102.487 42.4412 101.362 42.4412C99.3082 42.4412 100.727 39.9467 99.1375 39.9467C97.9886 39.9467 97.0103 41.2678 97.0103 44.3718V47.3554C97.0103 48.48 97.4263 48.8229 98.6728 48.9204V49.6777H92.5105V48.9204C93.6594 48.8229 94.0754 48.48 94.0754 47.3554L94.0739 47.3585Z" fill="#0F2542"/>
<path d="M104.955 47.3585V41.1962C104.955 40.0716 104.491 39.7775 103.415 39.8751V39.1177L106.814 38.4823C107.523 38.3604 107.89 38.6774 107.89 39.3387V47.3585C107.89 48.4831 108.306 48.8259 109.431 48.9234V49.6808H103.39V48.9234C104.539 48.8259 104.955 48.4831 104.955 47.3585ZM106.153 33.3242C107.083 33.3242 107.864 34.0572 107.864 35.0354C107.864 36.0137 107.081 36.7467 106.153 36.7467C105.225 36.7467 104.418 36.0137 104.418 35.0354C104.418 34.0572 105.199 33.3242 106.153 33.3242Z" fill="#0F2542"/>
<path d="M109.294 44.1798C109.294 40.3414 112.375 38.4335 115.407 38.4335C118.146 38.4335 119.931 39.9985 119.931 41.5635C119.931 42.3208 119.515 43.0309 118.513 43.0309C117.51 43.0309 117.143 42.2979 117.045 41.6122C116.923 40.6583 116.727 39.3631 115.089 39.3631C113.28 39.3631 112.399 40.9036 112.399 43.0309C112.399 46.1608 114.283 48.1417 116.8 48.1417C117.632 48.1417 118.609 47.9223 119.416 46.7718L120.003 47.2122C119.587 48.2636 117.9 49.8286 115.211 49.8286C112.203 49.8286 109.294 47.872 109.294 44.1798Z" fill="#0F2542"/>
<path d="M120.564 47.1391C120.564 45.1581 122.226 43.9604 126.994 43.2762C127.679 43.1787 127.875 43.0065 127.875 42.3711V41.9794C127.875 40.2194 127.313 39.3143 125.919 39.3143C123.131 39.3143 125.259 42.5661 122.715 42.5661C121.737 42.5661 121.272 41.9551 121.272 41.1718C121.272 39.2884 123.938 38.4335 126.627 38.4335C129.513 38.4335 130.808 39.485 130.808 42.8831V47.5535C130.808 48.3855 131.103 48.7513 131.811 48.5074V48.9478C131.493 49.5833 130.784 49.8286 130.027 49.8286C128.657 49.8286 128.021 49.021 127.924 48.1417C127.899 47.8476 127.704 47.7989 127.483 48.0686C126.799 48.925 125.527 49.8286 123.767 49.8286C122.104 49.8286 120.564 49.0469 120.564 47.1391ZM125.283 48.1905C126.775 48.1905 127.875 47.0415 127.875 45.501V44.8655C127.875 44.3033 127.68 44.0579 126.897 44.1326C124.183 44.3764 123.572 45.6 123.572 46.5539C123.572 47.4347 124.085 48.192 125.283 48.192V48.1905Z" fill="#0F2542"/>
</svg>
